<svg xmlns="http://www.w3.org/2000/svg" width="172" height="59" viewBox="0 0 172 59" fill="none"><path d="M26.753 0.00759638C0.464062 -0.429374 -10.0209 35.0556 11.7591 48.7674C11.6369 47.8181 11.6369 46.7634 11.6063 45.9045C-6.67369 32.8708 3.75018 1.51439 26.7683 2.25272C49.7711 1.36371 60.4243 32.6598 42.2054 45.8141C42.1748 46.673 42.1901 47.7277 42.0678 48.677C63.7715 34.8296 53.0267 -0.595121 26.753 0.00759638ZM26.9211 51.0728C24.0018 51.0879 21.2048 50.5906 18.6065 49.6866C18.4536 50.44 18.3619 51.2084 18.3161 51.9467C23.6809 53.7549 30.192 53.7398 35.5415 51.8865C35.4956 51.1482 35.3886 50.3797 35.2358 49.6263C32.6375 50.5454 29.8404 51.0577 26.9211 51.0728Z" fill="url(#paint0_linear_124_117)"></path><path d="M40.6767 12.4236C32.0564 10.4497 28.2506 20.3794 15.8704 16.1604C20.6696 16.7179 24.5518 15.5426 27.1807 14.2619C22.2439 14.4577 17.3988 10.9318 13.0122 12.4236C7.99896 14.1262 5.0491 22.3081 8.68675 30.8366C11.8812 38.3555 11.4532 40.7965 11.5449 45.8593C10.1235 51.2838 19.6303 61.9971 18.7132 57.2808C18.3006 56.1055 18.0713 54.1165 18.2241 51.9317C18.591 43.9909 24.4754 37.2404 31.0629 36.1556C28.0672 38.1445 26.0497 39.9828 24.6588 41.58C33.7835 39.139 36.9474 50.9975 34.9604 57.2808C33.6307 61.0628 41.1505 54.8247 41.9912 48.7373C42.5261 41.9115 41.2117 39.6061 45.0022 30.8516C48.6398 22.3081 45.69 14.1262 40.6767 12.4236ZM34.9146 29.4503C28.4952 33.157 19.5386 31.8311 14.7088 26.1806C14.5253 26.3915 14.3419 26.708 14.2197 26.9491C14.0057 27.1901 13.8223 26.8586 13.807 26.6326C13.7153 26.0148 14.0515 25.3518 14.5712 25.0204C14.8463 24.719 16.39 24.508 16.0385 25.156C15.7634 25.3217 15.4118 25.5025 15.1673 25.7135C21.5867 31.4694 32.0717 31.4694 38.4911 25.7285C38.2465 25.5025 37.8797 25.3217 37.6046 25.156C37.2225 24.4176 39.1483 24.8094 39.347 25.2464C39.7444 25.5628 40.2182 26.934 39.4998 27.0244C39.2859 26.7984 39.1483 26.4217 38.919 26.1806C37.8491 27.4614 36.4124 28.6065 34.9146 29.4503Z" fill="url(#paint1_linear_124_117)"></path><path d="M62.076 32.5421V32.2895L62.5308 32.1126C62.8678 31.9778 63.0952 31.8093 63.2131 31.6072C63.3479 31.405 63.4153 31.1355 63.4153 30.7986V17.608C63.4153 17.2543 63.3479 16.9763 63.2131 16.7742C63.0952 16.572 62.8678 16.412 62.5308 16.294L62.076 16.1172V15.8645H69.3283C71.3835 15.8645 72.866 16.2435 73.7756 17.0016C74.6853 17.7428 75.1402 18.6862 75.1402 19.8317C75.1402 20.6909 74.8033 21.4742 74.1294 22.1818C73.4724 22.8725 72.3353 23.361 70.7181 23.6474C72.5711 23.8495 73.9273 24.3381 74.7864 25.113C75.6456 25.8711 76.0751 26.7976 76.0751 27.8926C76.0751 28.4317 75.9572 28.9792 75.7214 29.5351C75.4855 30.0742 75.0812 30.5711 74.5085 31.026C73.9525 31.4808 73.186 31.8515 72.209 32.1378C71.2319 32.4074 69.9937 32.5421 68.4944 32.5421H62.076ZM67.1551 23.6221H68.2417C69.3704 23.6221 70.179 23.361 70.6675 22.8388C71.1729 22.3165 71.4256 21.4068 71.4256 20.1097C71.4256 18.762 71.1982 17.8018 70.7433 17.229C70.2885 16.6562 69.5473 16.3699 68.5197 16.3699H67.1551V23.6221ZM67.1551 32.0368H68.4186C69.682 32.0368 70.617 31.6998 71.2235 31.026C71.8468 30.3521 72.1584 29.2993 72.1584 27.8673C72.1584 26.5197 71.8636 25.5594 71.274 24.9867C70.6844 24.4139 69.7157 24.1275 68.368 24.1275H67.1551V32.0368ZM83.6184 20.0086C84.7134 20.0086 85.6484 20.236 86.4233 20.6909C87.1982 21.1289 87.7878 21.7353 88.1921 22.5103C88.6133 23.2683 88.8238 24.1359 88.8238 25.113C88.8238 25.2983 88.8154 25.492 88.7986 25.6942C88.7817 25.8795 88.748 26.048 88.6975 26.1996H81.1673C81.1841 28.019 81.5042 29.333 82.1275 30.1416C82.7677 30.9333 83.711 31.3292 84.9577 31.3292C85.8 31.3292 86.4822 31.1945 87.0045 30.9249C87.5267 30.6554 88.0152 30.2595 88.4701 29.7373L88.7228 29.9647C88.2005 30.8912 87.5014 31.6156 86.6254 32.1378C85.7663 32.6601 84.7302 32.9212 83.5173 32.9212C82.3212 32.9212 81.2599 32.6685 80.3334 32.1631C79.4069 31.6409 78.6825 30.8996 78.1602 29.9394C77.638 28.9792 77.3769 27.8336 77.3769 26.5028C77.3769 25.1214 77.6801 23.9506 78.2866 22.9904C78.8931 22.0133 79.668 21.2721 80.6114 20.7667C81.5716 20.2613 82.5739 20.0086 83.6184 20.0086ZM83.5426 20.514C83.054 20.514 82.6329 20.6656 82.2791 20.9688C81.9422 21.2552 81.6727 21.7775 81.4705 22.5355C81.2852 23.2768 81.1841 24.3297 81.1673 25.6942H85.4883C85.6568 23.858 85.5894 22.5355 85.2862 21.7269C84.9829 20.9183 84.4017 20.514 83.5426 20.514ZM93.6738 32.9212C92.6967 32.9212 91.8712 32.6432 91.1974 32.0873C90.5404 31.5314 90.2119 30.7312 90.2119 29.6867C90.2119 28.895 90.6162 28.1706 91.4248 27.5136C92.2334 26.8397 93.5053 26.3343 95.2405 25.9974C95.51 25.9469 95.8132 25.8963 96.1501 25.8458C96.4871 25.7784 96.8408 25.711 97.2114 25.6437V23.6474C97.2114 22.5018 97.0683 21.7017 96.7819 21.2468C96.5123 20.7751 96.0828 20.5393 95.4931 20.5393C95.0888 20.5393 94.7688 20.674 94.5329 20.9436C94.2971 21.1963 94.1455 21.6427 94.0781 22.2828L94.0275 22.5608C93.9938 23.2852 93.817 23.8158 93.4969 24.1528C93.1768 24.4897 92.7809 24.6582 92.3092 24.6582C91.8712 24.6582 91.509 24.5234 91.2226 24.2538C90.9363 23.9843 90.7931 23.6221 90.7931 23.1673C90.7931 22.4766 91.0289 21.8954 91.5006 21.4237C91.9891 20.952 92.6293 20.5982 93.4211 20.3624C94.2128 20.1265 95.072 20.0086 95.9985 20.0086C97.4978 20.0086 98.6518 20.3792 99.4604 21.1205C100.286 21.8448 100.699 23.0325 100.699 24.6834V30.2679C100.699 31.026 101.052 31.405 101.76 31.405H102.316L102.543 31.6072C102.223 32.0115 101.869 32.3231 101.482 32.5421C101.111 32.7611 100.581 32.8706 99.89 32.8706C99.1488 32.8706 98.5591 32.7022 98.1211 32.3653C97.7 32.0115 97.422 31.5482 97.2873 30.9755C96.7819 31.5145 96.2596 31.9778 95.7206 32.3653C95.1983 32.7359 94.5161 32.9212 93.6738 32.9212ZM95.2152 31.3798C95.5521 31.3798 95.8638 31.304 96.1501 31.1523C96.4534 30.9839 96.8071 30.7312 97.2114 30.3943V26.149C97.043 26.1827 96.8745 26.2164 96.7061 26.2501C96.5376 26.2838 96.3439 26.3175 96.1249 26.3512C95.35 26.5533 94.7266 26.8987 94.255 27.3872C93.8001 27.8589 93.5727 28.4991 93.5727 29.3077C93.5727 29.9984 93.7327 30.5206 94.0528 30.8744C94.3729 31.2113 94.7603 31.3798 95.2152 31.3798ZM107.44 32.9212C106.783 32.9212 106.176 32.7948 105.62 32.5421C105.081 32.2895 104.652 31.8851 104.331 31.3292C104.028 30.7565 103.885 30.0068 103.902 29.0803L103.978 22.5861C103.978 22.1986 103.91 21.9207 103.776 21.7522C103.641 21.5837 103.43 21.4658 103.144 21.3984L102.841 21.2973V21.0447L107.364 20.1602L107.616 20.4129L107.49 24.0012V30.091C107.49 30.6301 107.642 31.026 107.945 31.2787C108.265 31.5314 108.661 31.6577 109.133 31.6577C109.604 31.6577 110.025 31.5903 110.396 31.4556C110.767 31.3208 111.137 31.1186 111.508 30.8491L111.609 22.6113C111.609 22.2239 111.55 21.9543 111.432 21.8027C111.314 21.6343 111.095 21.5163 110.775 21.449L110.522 21.3732V21.1205L114.945 20.1602L115.197 20.4129L115.121 24.0012V30.8491C115.121 31.2197 115.172 31.5061 115.273 31.7083C115.374 31.9104 115.593 32.0789 115.93 32.2136L116.183 32.2895V32.5421L111.761 32.7948L111.533 31.304C110.977 31.7588 110.371 32.1463 109.714 32.4663C109.074 32.7696 108.316 32.9212 107.44 32.9212ZM117.254 32.5421V32.2895L117.784 32.0873C118.323 31.8683 118.593 31.4387 118.593 30.7986V17.608C118.593 16.9342 118.323 16.5046 117.784 16.3193L117.254 16.1172V15.8645H123.925C125.71 15.8645 127.243 16.2014 128.524 16.8752C129.821 17.5322 130.815 18.484 131.506 19.7307C132.213 20.9604 132.567 22.4429 132.567 24.178C132.567 25.9469 132.188 27.4546 131.43 28.7012C130.672 29.9478 129.61 30.8996 128.246 31.5566C126.898 32.2136 125.306 32.5421 123.47 32.5421H117.254ZM122.383 32.0368H123.47C124.683 32.0368 125.66 31.8009 126.401 31.3292C127.142 30.8407 127.681 30.0321 128.018 28.9034C128.372 27.7578 128.549 26.1912 128.549 24.2033C128.549 22.2155 128.372 20.6572 128.018 19.5285C127.681 18.383 127.151 17.5744 126.426 17.1027C125.702 16.6141 124.75 16.3699 123.571 16.3699H122.383V32.0368ZM139.931 20.0086C141.026 20.0086 141.961 20.236 142.736 20.6909C143.511 21.1289 144.101 21.7353 144.505 22.5103C144.926 23.2683 145.137 24.1359 145.137 25.113C145.137 25.2983 145.128 25.492 145.111 25.6942C145.095 25.8795 145.061 26.048 145.01 26.1996H137.48C137.497 28.019 137.817 29.333 138.44 30.1416C139.08 30.9333 140.024 31.3292 141.27 31.3292C142.113 31.3292 142.795 31.1945 143.317 30.9249C143.84 30.6554 144.328 30.2595 144.783 29.7373L145.036 29.9647C144.513 30.8912 143.814 31.6156 142.938 32.1378C142.079 32.6601 141.043 32.9212 139.83 32.9212C138.634 32.9212 137.573 32.6685 136.646 32.1631C135.72 31.6409 134.995 30.8996 134.473 29.9394C133.951 28.9792 133.69 27.8336 133.69 26.5028C133.69 25.1214 133.993 23.9506 134.599 22.9904C135.206 22.0133 135.981 21.2721 136.924 20.7667C137.884 20.2613 138.887 20.0086 139.931 20.0086ZM139.855 20.514C139.367 20.514 138.946 20.6656 138.592 20.9688C138.255 21.2552 137.985 21.7775 137.783 22.5355C137.598 23.2768 137.497 24.3297 137.48 25.6942H141.801C141.97 23.858 141.902 22.5355 141.599 21.7269C141.296 20.9183 140.715 20.514 139.855 20.514ZM146.396 32.5421V32.2895L146.75 32.1884C147.339 32.0199 147.634 31.6072 147.634 30.9502V23.0409C147.634 22.6703 147.575 22.4008 147.457 22.2323C147.339 22.047 147.112 21.9207 146.775 21.8533L146.396 21.7522V21.4995L150.717 20.0339L150.97 20.2866L151.172 21.8027C151.761 21.2805 152.427 20.8509 153.168 20.514C153.909 20.1771 154.642 20.0086 155.367 20.0086C156.478 20.0086 157.329 20.3118 157.919 20.9183C158.525 21.5248 158.828 22.4513 158.828 23.6979V30.9755C158.828 31.6325 159.149 32.0452 159.789 32.2136L160.016 32.2895V32.5421H154.053V32.2895L154.381 32.1884C154.971 32.0031 155.265 31.5903 155.265 30.9502V22.8893C155.265 21.8112 154.726 21.2721 153.648 21.2721C152.907 21.2721 152.098 21.6427 151.222 22.3839V30.9755C151.222 31.6325 151.517 32.0452 152.107 32.2136L152.334 32.2895V32.5421H146.396ZM165.683 32.9212C164.604 32.9212 163.762 32.6516 163.156 32.1126C162.566 31.5735 162.271 30.7143 162.271 29.5351V20.893H160.528V20.6403L161.134 20.5393C161.656 20.4213 162.103 20.2529 162.473 20.0339C162.861 19.8149 163.24 19.5201 163.61 19.1495L165.683 16.85H165.935L165.859 20.3877H168.69V20.893H165.834V29.99C165.834 30.5796 165.96 31.026 166.213 31.3292C166.483 31.6325 166.82 31.7841 167.224 31.7841C167.578 31.7841 167.889 31.6998 168.159 31.5314C168.428 31.3461 168.698 31.1018 168.967 30.7986L169.22 31.0513C168.883 31.624 168.42 32.0789 167.83 32.4158C167.241 32.7527 166.525 32.9212 165.683 32.9212Z" fill="#333333"></path><path d="M61.2257 42.4471C61.2257 42.4003 61.2344 42.3558 61.2517 42.3139C61.2714 42.2695 61.2961 42.2325 61.3257 42.2028C61.3578 42.1708 61.3948 42.1461 61.4367 42.1288C61.4787 42.1091 61.5231 42.0992 61.57 42.0992C61.6169 42.0992 61.6613 42.1091 61.7032 42.1288C61.7452 42.1461 61.7822 42.1708 61.8143 42.2028C61.8464 42.2325 61.8711 42.2682 61.8883 42.3102C61.9081 42.3521 61.9179 42.3966 61.9179 42.4434C61.9179 42.4903 61.9081 42.5348 61.8883 42.5767C61.8711 42.6187 61.8464 42.6557 61.8143 42.6877C61.7822 42.7174 61.744 42.742 61.6995 42.7618C61.6576 42.7791 61.6132 42.7877 61.5663 42.7877C61.5194 42.7877 61.475 42.7791 61.433 42.7618C61.3911 42.7445 61.3541 42.7211 61.322 42.6914C61.2924 42.6594 61.2689 42.6224 61.2517 42.5804C61.2344 42.5385 61.2257 42.494 61.2257 42.4471ZM62.9655 42.4471C62.9655 42.4003 62.9741 42.3558 62.9914 42.3139C63.0111 42.2695 63.0358 42.2325 63.0654 42.2028C63.0975 42.1708 63.1345 42.1461 63.1765 42.1288C63.2184 42.1091 63.2628 42.0992 63.3097 42.0992C63.3566 42.0992 63.401 42.1091 63.443 42.1288C63.4849 42.1461 63.5219 42.1708 63.554 42.2028C63.5861 42.2325 63.6108 42.2682 63.6281 42.3102C63.6478 42.3521 63.6577 42.3966 63.6577 42.4434C63.6577 42.4903 63.6478 42.5348 63.6281 42.5767C63.6108 42.6187 63.5861 42.6557 63.554 42.6877C63.5219 42.7174 63.4837 42.742 63.4393 42.7618C63.3973 42.7791 63.3529 42.7877 63.306 42.7877C63.2591 42.7877 63.2147 42.7791 63.1728 42.7618C63.1308 42.7445 63.0938 42.7211 63.0617 42.6914C63.0321 42.6594 63.0087 42.6224 62.9914 42.5804C62.9741 42.5385 62.9655 42.494 62.9655 42.4471ZM64.7052 42.4471C64.7052 42.4003 64.7138 42.3558 64.7311 42.3139C64.7509 42.2695 64.7755 42.2325 64.8051 42.2028C64.8372 42.1708 64.8742 42.1461 64.9162 42.1288C64.9581 42.1091 65.0026 42.0992 65.0494 42.0992C65.0963 42.0992 65.1408 42.1091 65.1827 42.1288C65.2247 42.1461 65.2617 42.1708 65.2937 42.2028C65.3258 42.2325 65.3505 42.2682 65.3678 42.3102C65.3875 42.3521 65.3974 42.3966 65.3974 42.4434C65.3974 42.4903 65.3875 42.5348 65.3678 42.5767C65.3505 42.6187 65.3258 42.6557 65.2937 42.6877C65.2617 42.7174 65.2234 42.742 65.179 42.7618C65.137 42.7791 65.0926 42.7877 65.0457 42.7877C64.9989 42.7877 64.9544 42.7791 64.9125 42.7618C64.8705 42.7445 64.8335 42.7211 64.8014 42.6914C64.7718 42.6594 64.7484 42.6224 64.7311 42.5804C64.7138 42.5385 64.7052 42.494 64.7052 42.4471ZM70.9904 37.302H71.5383L70.1946 40.9924C70.128 41.1775 70.07 41.3651 70.0206 41.5551C69.9737 41.7426 69.9503 41.9141 69.9503 42.0696C69.9503 42.1708 69.9614 42.2633 69.9836 42.3472C70.0083 42.4311 70.0441 42.5027 70.091 42.5619C70.1403 42.6211 70.2008 42.668 70.2723 42.7026C70.3464 42.7346 70.4327 42.7507 70.5314 42.7507C70.6992 42.7507 70.872 42.7026 71.0497 42.6063C71.2298 42.5076 71.4075 42.3743 71.5827 42.2065C71.7603 42.0363 71.9343 41.8364 72.1046 41.6069C72.2773 41.3774 72.439 41.1306 72.5895 40.8666C72.7425 40.6025 72.8832 40.3274 73.0115 40.0411C73.1423 39.7524 73.2545 39.4662 73.3483 39.1824C73.4421 38.8961 73.5149 38.6173 73.5667 38.3458C73.6185 38.0744 73.6444 37.8227 73.6444 37.5907C73.6444 37.4279 73.6333 37.2909 73.6111 37.1798C73.5889 37.0663 73.563 36.9713 73.5334 36.8948C73.5062 36.8183 73.4816 36.7566 73.4594 36.7098C73.4371 36.6629 73.426 36.6246 73.426 36.595C73.426 36.5629 73.4409 36.5284 73.4705 36.4914C73.5025 36.4543 73.5482 36.4358 73.6074 36.4358C73.6642 36.4358 73.7123 36.4593 73.7518 36.5062C73.7913 36.5506 73.8221 36.611 73.8443 36.6875C73.869 36.7616 73.8863 36.8467 73.8961 36.9429C73.906 37.0392 73.9109 37.1391 73.9109 37.2428C73.9109 37.4969 73.8838 37.7733 73.8295 38.0719C73.7777 38.368 73.7037 38.674 73.6074 38.9899C73.5112 39.3033 73.3952 39.6192 73.2595 39.9375C73.1262 40.2534 72.9782 40.5569 72.8153 40.8481C72.6524 41.1393 72.476 41.4119 72.286 41.6661C72.0984 41.9203 71.9022 42.1412 71.6974 42.3287C71.4951 42.5162 71.2866 42.6643 71.0719 42.7729C70.8596 42.879 70.6462 42.932 70.4315 42.932C70.2711 42.932 70.1317 42.9012 70.0132 42.8395C69.8948 42.7803 69.7961 42.7001 69.7171 42.5989C69.6406 42.4953 69.5838 42.3768 69.5468 42.2436C69.5098 42.1078 69.4913 41.9647 69.4913 41.8142C69.4913 41.6809 69.5061 41.5452 69.5357 41.407C69.4025 41.6316 69.263 41.8376 69.1174 42.0252C68.9719 42.2102 68.8226 42.3706 68.6696 42.5064C68.5166 42.6396 68.3611 42.7433 68.2032 42.8173C68.0452 42.8938 67.8873 42.932 67.7294 42.932C67.6084 42.932 67.49 42.9086 67.374 42.8617C67.258 42.8173 67.1544 42.7531 67.0631 42.6692C66.9742 42.5829 66.9027 42.4792 66.8484 42.3583C66.7941 42.2349 66.767 42.0955 66.767 41.94C66.767 41.8043 66.7879 41.6501 66.8299 41.4773C66.8718 41.3021 66.9261 41.1158 66.9928 40.9184C67.0619 40.721 67.1396 40.5162 67.226 40.304C67.3148 40.0893 67.4049 39.8733 67.4962 39.6562C67.5899 39.4366 67.68 39.2206 67.7664 39.0084C67.8552 38.7962 67.933 38.5926 67.9996 38.3977C68.0687 38.2027 68.1242 38.0213 68.1661 37.8535C68.2081 37.6833 68.2291 37.5327 68.2291 37.4019C68.2291 37.3427 68.2229 37.2872 68.2106 37.2354C68.2007 37.1811 68.1834 37.1354 68.1587 37.0984C68.1341 37.0589 68.0995 37.0281 68.0551 37.0059C68.0132 36.9837 67.9613 36.9726 67.8996 36.9726C67.7935 36.9726 67.68 37.0083 67.5591 37.0799C67.4406 37.149 67.3185 37.2563 67.1926 37.4019C67.0668 37.5475 66.9385 37.7326 66.8077 37.9572C66.6794 38.1793 66.5523 38.4421 66.4264 38.7456L66.3265 38.679C66.4671 38.336 66.6066 38.0472 66.7448 37.8128C66.8854 37.5759 67.0273 37.3859 67.1704 37.2428C67.3136 37.0972 67.4579 36.9923 67.6035 36.9281C67.7491 36.864 67.8972 36.8319 68.0477 36.8319C68.2723 36.8319 68.4462 36.8924 68.5696 37.0133C68.6955 37.1342 68.7584 37.3032 68.7584 37.5204C68.7584 37.6487 68.7374 37.8005 68.6955 37.9757C68.6535 38.1484 68.5968 38.3372 68.5252 38.542C68.4561 38.7444 68.3771 38.9578 68.2883 39.1824C68.1995 39.4045 68.1082 39.6303 68.0144 39.8598C67.9231 40.0868 67.833 40.3114 67.7442 40.5334C67.6553 40.7555 67.5751 40.9665 67.5036 41.1664C67.4345 41.3638 67.379 41.5464 67.337 41.7142C67.2951 41.882 67.2741 42.0252 67.2741 42.1436C67.2741 42.2325 67.2864 42.3139 67.3111 42.3879C67.3382 42.462 67.3753 42.5261 67.4221 42.5804C67.469 42.6347 67.5258 42.6766 67.5924 42.7063C67.659 42.7359 67.7331 42.7507 67.8145 42.7507C67.9798 42.7507 68.1526 42.6902 68.3327 42.5693C68.5129 42.4484 68.6905 42.2843 68.8657 42.077C69.0409 41.8697 69.2112 41.6291 69.3766 41.3552C69.5419 41.0813 69.6937 40.7913 69.8318 40.4853L70.9904 37.302ZM75.8913 36.4506H76.4428L75.151 39.993C75.3188 39.7117 75.4779 39.4674 75.6285 39.2601C75.7815 39.0504 75.9332 38.8776 76.0838 38.7419C76.2343 38.6037 76.3885 38.5013 76.5464 38.4347C76.7044 38.3656 76.8734 38.331 77.0536 38.331C77.2041 38.331 77.3361 38.3557 77.4496 38.4051C77.5656 38.4544 77.6618 38.5247 77.7383 38.616C77.8173 38.7049 77.8765 38.8122 77.916 38.9381C77.9555 39.0639 77.9752 39.2046 77.9752 39.3601C77.9752 39.4711 77.9543 39.6019 77.9123 39.7524C77.8728 39.903 77.8222 40.0634 77.7606 40.2336C77.6989 40.4039 77.6322 40.5791 77.5607 40.7592C77.4891 40.9369 77.4225 41.1097 77.3608 41.2775C77.2991 41.4453 77.2473 41.602 77.2053 41.7476C77.1658 41.8907 77.1461 42.0128 77.1461 42.114C77.1461 42.2843 77.1905 42.42 77.2794 42.5212C77.3707 42.6224 77.5113 42.6729 77.7013 42.6729C77.8667 42.6729 78.0258 42.6372 78.1788 42.5656C78.3343 42.494 78.4873 42.3867 78.6378 42.2436C78.7908 42.098 78.9438 41.9166 79.0968 41.6994C79.2498 41.4798 79.409 41.2244 79.5743 40.9332L79.7668 40.5927L79.8667 40.663L79.6743 41.0035C79.4941 41.3219 79.3214 41.5983 79.156 41.8327C78.9932 42.0647 78.8291 42.2571 78.6637 42.4101C78.5009 42.5607 78.3343 42.6729 78.164 42.747C77.9938 42.821 77.8124 42.858 77.6199 42.858C77.4694 42.858 77.3361 42.8346 77.2201 42.7877C77.1066 42.7433 77.0104 42.6791 76.9314 42.5952C76.8549 42.5113 76.7969 42.4101 76.7574 42.2917C76.718 42.1732 76.6982 42.0412 76.6982 41.8956C76.6982 41.7895 76.718 41.6624 76.7574 41.5144C76.7994 41.3638 76.8512 41.2022 76.9129 41.0295C76.9746 40.8567 77.0412 40.6803 77.1128 40.5001C77.1843 40.3175 77.251 40.1423 77.3127 39.9745C77.3744 39.8067 77.4249 39.6512 77.4644 39.5081C77.5064 39.3625 77.5274 39.2416 77.5274 39.1454C77.5274 38.9529 77.4817 38.7999 77.3904 38.6864C77.3016 38.5729 77.1621 38.5161 76.9721 38.5161C76.8043 38.5161 76.6427 38.5556 76.4872 38.6346C76.3318 38.7135 76.1714 38.8394 76.006 39.0121C75.8432 39.1824 75.6716 39.4032 75.4915 39.6747C75.3138 39.9461 75.1201 40.2756 74.9104 40.663L74.133 42.7877H73.5852L75.8913 36.4506ZM81.0364 42.858C80.5898 42.858 80.2455 42.742 80.0037 42.5101C79.7619 42.2756 79.6409 41.9277 79.6409 41.4662C79.6409 41.3404 79.6508 41.2071 79.6706 41.0665C79.6878 40.9258 79.7162 40.7815 79.7557 40.6334C79.8445 40.3027 79.9691 39.9967 80.1295 39.7154C80.2924 39.4341 80.4787 39.191 80.6885 38.9862C80.8982 38.7814 81.124 38.621 81.3659 38.505C81.6077 38.389 81.8508 38.331 82.0951 38.331C82.3418 38.331 82.5355 38.389 82.6762 38.505C82.8193 38.621 82.8909 38.7839 82.8909 38.9936C82.8909 39.1121 82.8675 39.228 82.8206 39.3416C82.7737 39.4551 82.7058 39.5624 82.617 39.6636C82.5281 39.7648 82.4208 39.8598 82.2949 39.9486C82.1716 40.035 82.0321 40.1102 81.8767 40.1744C81.6842 40.2558 81.472 40.3175 81.24 40.3595C81.008 40.399 80.744 40.4187 80.4479 40.4187C80.3763 40.6186 80.3196 40.8271 80.2776 41.0443C80.2381 41.259 80.2184 41.4786 80.2184 41.7031C80.2184 42.0461 80.2899 42.2941 80.4331 42.4471C80.5787 42.5977 80.8069 42.6729 81.1179 42.6729C81.377 42.6729 81.6237 42.6236 81.8582 42.5249C82.0926 42.4237 82.3098 42.2917 82.5096 42.1288C82.7095 41.9659 82.8921 41.7809 83.0575 41.5736C83.2228 41.3638 83.3672 41.1504 83.4905 40.9332L83.683 40.5927L83.783 40.663L83.5905 41.0035C83.4375 41.2725 83.2697 41.5205 83.0871 41.7476C82.9069 41.9746 82.7095 42.1708 82.4948 42.3361C82.2826 42.499 82.0543 42.6273 81.81 42.7211C81.5682 42.8124 81.3103 42.858 81.0364 42.858ZM82.1987 38.4791C82.0432 38.4791 81.8841 38.5247 81.7212 38.616C81.5608 38.7074 81.4053 38.8344 81.2548 38.9973C81.1043 39.1577 80.9636 39.3477 80.8328 39.5673C80.7021 39.787 80.5885 40.0263 80.4923 40.2854C80.7637 40.2805 80.9957 40.2571 81.1882 40.2151C81.3807 40.1707 81.5485 40.1152 81.6916 40.0485C81.8051 39.9967 81.9149 39.9301 82.021 39.8487C82.1296 39.7648 82.2246 39.6698 82.3061 39.5636C82.39 39.4575 82.4566 39.3428 82.5059 39.2194C82.5578 39.096 82.5837 38.9677 82.5837 38.8344C82.5837 38.7678 82.5738 38.7123 82.5541 38.6679C82.5343 38.6235 82.5072 38.5877 82.4726 38.5605C82.4381 38.5309 82.3974 38.5099 82.3505 38.4976C82.3036 38.4853 82.253 38.4791 82.1987 38.4791ZM86.4518 38.6642C86.4518 38.6247 86.4259 38.5852 86.3741 38.5457C86.3247 38.5038 86.2519 38.4828 86.1557 38.4828C86.057 38.4828 85.9496 38.5136 85.8336 38.5753C85.7176 38.6346 85.5856 38.7407 85.4376 38.8937C85.2895 39.0467 85.1229 39.2552 84.9379 39.5192C84.7552 39.7833 84.548 40.1201 84.316 40.5297L84.1309 40.8555L83.4313 42.7877H82.8798L84.4789 38.4014H85.0267L84.3789 40.1781C84.5813 39.8302 84.7663 39.539 84.9342 39.3045C85.102 39.0676 85.2574 38.8776 85.4005 38.7345C85.5437 38.5889 85.6782 38.4853 85.804 38.4236C85.9299 38.3619 86.0533 38.331 86.1742 38.331C86.337 38.331 86.4641 38.3791 86.5554 38.4754C86.6492 38.5716 86.6961 38.6975 86.6961 38.8529C86.6961 38.9171 86.6874 38.9788 86.6702 39.038C86.6554 39.0948 86.6319 39.1441 86.5998 39.1861C86.5702 39.228 86.5332 39.2613 86.4888 39.286C86.4444 39.3107 86.395 39.323 86.3407 39.323C86.3013 39.323 86.2618 39.3169 86.2223 39.3045C86.1853 39.2922 86.152 39.2737 86.1223 39.249C86.0927 39.2219 86.0681 39.1898 86.0483 39.1528C86.031 39.1158 86.0224 39.0726 86.0224 39.0232C86.0224 38.9837 86.0286 38.9443 86.0409 38.9048C86.0557 38.8628 86.0755 38.827 86.1001 38.7974C86.1248 38.7653 86.1544 38.7394 86.189 38.7197C86.2235 38.6999 86.2618 38.6901 86.3037 38.6901C86.3309 38.6901 86.3568 38.6925 86.3815 38.6975C86.3864 38.7024 86.3926 38.7074 86.4 38.7123C86.4098 38.7148 86.4172 38.716 86.4222 38.716C86.4419 38.716 86.4518 38.6987 86.4518 38.6642ZM88.4025 42.858C87.9558 42.858 87.6116 42.742 87.3698 42.5101C87.1279 42.2756 87.007 41.9277 87.007 41.4662C87.007 41.3404 87.0169 41.2071 87.0366 41.0665C87.0539 40.9258 87.0823 40.7815 87.1218 40.6334C87.2106 40.3027 87.3352 39.9967 87.4956 39.7154C87.6585 39.4341 87.8448 39.191 88.0546 38.9862C88.2643 38.7814 88.4901 38.621 88.7319 38.505C88.9738 38.389 89.2168 38.331 89.4611 38.331C89.7079 38.331 89.9016 38.389 90.0423 38.505C90.1854 38.621 90.257 38.7839 90.257 38.9936C90.257 39.1121 90.2335 39.228 90.1866 39.3416C90.1398 39.4551 90.0719 39.5624 89.9831 39.6636C89.8942 39.7648 89.7869 39.8598 89.661 39.9486C89.5376 40.035 89.3982 40.1102 89.2427 40.1744C89.0503 40.2558 88.838 40.3175 88.6061 40.3595C88.3741 40.399 88.1101 40.4187 87.814 40.4187C87.7424 40.6186 87.6856 40.8271 87.6437 41.0443C87.6042 41.259 87.5845 41.4786 87.5845 41.7031C87.5845 42.0461 87.656 42.2941 87.7991 42.4471C87.9447 42.5977 88.173 42.6729 88.4839 42.6729C88.743 42.6729 88.9898 42.6236 89.2242 42.5249C89.4587 42.4237 89.6758 42.2917 89.8757 42.1288C90.0756 41.9659 90.2582 41.7809 90.4235 41.5736C90.5889 41.3638 90.7332 41.1504 90.8566 40.9332L91.0491 40.5927L91.149 40.663L90.9566 41.0035C90.8036 41.2725 90.6358 41.5205 90.4532 41.7476C90.273 41.9746 90.0756 42.1708 89.8609 42.3361C89.6487 42.499 89.4204 42.6273 89.1761 42.7211C88.9343 42.8124 88.6764 42.858 88.4025 42.858ZM89.5648 38.4791C89.4093 38.4791 89.2502 38.5247 89.0873 38.616C88.9269 38.7074 88.7714 38.8344 88.6209 38.9973C88.4704 39.1577 88.3297 39.3477 88.1989 39.5673C88.0681 39.787 87.9546 40.0263 87.8584 40.2854C88.1298 40.2805 88.3618 40.2571 88.5543 40.2151C88.7467 40.1707 88.9145 40.1152 89.0577 40.0485C89.1712 39.9967 89.281 39.9301 89.3871 39.8487C89.4957 39.7648 89.5907 39.6698 89.6721 39.5636C89.756 39.4575 89.8227 39.3428 89.872 39.2194C89.9238 39.096 89.9497 38.9677 89.9497 38.8344C89.9497 38.7678 89.9399 38.7123 89.9201 38.6679C89.9004 38.6235 89.8732 38.5877 89.8387 38.5605C89.8042 38.5309 89.7634 38.5099 89.7165 38.4976C89.6697 38.4853 89.6191 38.4791 89.5648 38.4791ZM93.307 41.7846C93.307 41.6587 93.3206 41.5341 93.3478 41.4107C93.3749 41.2849 93.4119 41.1676 93.4588 41.0591C93.5057 40.9505 93.56 40.8542 93.6217 40.7703C93.6834 40.684 93.7488 40.6161 93.8179 40.5668L95.3799 38.294C95.4071 38.0941 95.4539 37.9337 95.5206 37.8128C95.5872 37.6919 95.6674 37.6314 95.7612 37.6314C95.8352 37.6314 95.8969 37.6512 95.9462 37.6907C95.9956 37.7301 96.0203 37.7783 96.0203 37.835C96.0203 37.877 96.0104 37.914 95.9907 37.9461C95.9709 37.9781 95.9364 38.0152 95.887 38.0571C95.8303 38.104 95.7821 38.1484 95.7427 38.1904C95.7056 38.2323 95.6748 38.2743 95.6501 38.3162C95.6254 38.3582 95.6082 38.4026 95.5983 38.4495C95.5884 38.4964 95.5835 38.547 95.5835 38.6012C95.5835 38.6555 95.5872 38.7123 95.5946 38.7715C95.6045 38.8307 95.6205 38.906 95.6427 38.9973C95.6649 39.0886 95.6958 39.2021 95.7353 39.3378C95.7772 39.4736 95.8303 39.6451 95.8944 39.8524C95.9586 40.0596 96.0055 40.2571 96.0351 40.4446C96.0672 40.6322 96.0832 40.8148 96.0832 40.9924C96.0832 41.6711 95.8377 42.1856 95.3466 42.536C95.201 42.6396 95.0431 42.7198 94.8728 42.7766C94.705 42.8309 94.5347 42.858 94.362 42.858C94.1991 42.858 94.0523 42.8333 93.9215 42.784C93.7907 42.7322 93.6809 42.6606 93.5921 42.5693C93.5008 42.4755 93.4304 42.3632 93.3811 42.2325C93.3317 42.0992 93.307 41.9499 93.307 41.7846ZM95.3577 38.5605L94.0362 40.489C94.1152 40.489 94.1781 40.5149 94.225 40.5668C94.2719 40.6186 94.2954 40.6877 94.2954 40.774C94.2954 40.8185 94.2892 40.8617 94.2769 40.9036C94.2645 40.9431 94.2472 40.9776 94.225 41.0072C94.2028 41.0369 94.1769 41.0615 94.1473 41.0813C94.1177 41.0986 94.0868 41.1072 94.0548 41.1072C94.0128 41.1072 93.977 41.0986 93.9474 41.0813C93.9178 41.064 93.8808 41.0554 93.8364 41.0554C93.7845 41.0554 93.7364 41.0739 93.692 41.1109C93.6451 41.1454 93.6056 41.1948 93.5736 41.259C93.539 41.3231 93.5131 41.3996 93.4958 41.4884C93.4761 41.5748 93.4662 41.6698 93.4662 41.7735C93.4662 41.9117 93.486 42.0363 93.5254 42.1473C93.5625 42.2584 93.618 42.3534 93.692 42.4323C93.7636 42.5088 93.8499 42.5681 93.9511 42.61C94.0548 42.652 94.172 42.6729 94.3028 42.6729C94.4755 42.6729 94.6359 42.6359 94.784 42.5619C94.932 42.4879 95.0616 42.3805 95.1726 42.2399C95.4391 41.8993 95.5724 41.386 95.5724 40.7C95.5724 40.6161 95.5699 40.5334 95.565 40.452C95.5625 40.3681 95.5564 40.2817 95.5465 40.1929C95.5391 40.1016 95.528 40.0041 95.5132 39.9005C95.4984 39.7968 95.4811 39.6796 95.4613 39.5488C95.4268 39.3292 95.4009 39.1454 95.3836 38.9973C95.3663 38.8492 95.3577 38.7296 95.3577 38.6383V38.5605ZM98.393 38.4014H98.9408L98.3597 39.9893C98.525 39.708 98.6805 39.4637 98.8261 39.2564C98.9741 39.0491 99.1197 38.8776 99.2628 38.7419C99.4084 38.6037 99.5565 38.5013 99.707 38.4347C99.86 38.3656 100.023 38.331 100.196 38.331C100.346 38.331 100.478 38.3557 100.592 38.4051C100.708 38.4544 100.804 38.5235 100.88 38.6123C100.959 38.7012 101.019 38.8085 101.058 38.9344C101.098 39.0602 101.117 39.1984 101.117 39.349C101.117 39.4427 101.109 39.5451 101.091 39.6562C101.074 39.7648 101.042 39.898 100.995 40.0559C101.16 39.7697 101.317 39.5192 101.465 39.3045C101.613 39.0898 101.76 38.9109 101.906 38.7678C102.054 38.6222 102.204 38.5136 102.357 38.4421C102.513 38.368 102.678 38.331 102.853 38.331C103.006 38.331 103.141 38.3569 103.257 38.4088C103.375 38.4606 103.473 38.5297 103.549 38.616C103.628 38.7024 103.687 38.8048 103.727 38.9233C103.766 39.0393 103.786 39.1614 103.786 39.2897C103.786 39.4279 103.765 39.5797 103.723 39.745C103.684 39.9104 103.633 40.0806 103.571 40.2558C103.51 40.431 103.443 40.6087 103.372 40.7889C103.3 40.9665 103.233 41.138 103.172 41.3034C103.11 41.4687 103.058 41.6242 103.016 41.7698C102.977 41.9129 102.957 42.0387 102.957 42.1473C102.957 42.2979 103.003 42.4237 103.094 42.5249C103.188 42.6236 103.333 42.6729 103.531 42.6729C103.849 42.6729 104.156 42.5286 104.452 42.2399C104.751 41.9511 105.062 41.5156 105.385 40.9332L105.574 40.5927L105.674 40.663L105.481 41.0035C105.306 41.3145 105.137 41.5872 104.974 41.8216C104.811 42.0535 104.649 42.246 104.486 42.399C104.323 42.552 104.156 42.6668 103.986 42.7433C103.816 42.8198 103.636 42.858 103.446 42.858C103.29 42.858 103.154 42.8346 103.038 42.7877C102.922 42.7408 102.825 42.6766 102.746 42.5952C102.667 42.5138 102.608 42.42 102.568 42.3139C102.529 42.2053 102.509 42.0906 102.509 41.9696C102.509 41.8413 102.529 41.697 102.568 41.5366C102.61 41.3762 102.662 41.2096 102.724 41.0369C102.785 40.8641 102.852 40.6889 102.924 40.5112C102.995 40.3311 103.062 40.1571 103.124 39.9893C103.185 39.819 103.236 39.6586 103.275 39.5081C103.317 39.3551 103.338 39.2194 103.338 39.1009C103.338 39.0195 103.327 38.943 103.305 38.8715C103.283 38.7999 103.248 38.7382 103.201 38.6864C103.154 38.6321 103.095 38.5901 103.024 38.5605C102.952 38.5309 102.867 38.5161 102.768 38.5161C102.613 38.5161 102.463 38.5556 102.32 38.6346C102.177 38.7111 102.034 38.8258 101.891 38.9788C101.748 39.1318 101.601 39.3206 101.45 39.5451C101.302 39.7697 101.146 40.0288 100.98 40.3225L100.795 40.6519L100.018 42.7877H99.4701L100.266 40.5927C100.33 40.4125 100.387 40.2509 100.436 40.1078C100.488 39.9622 100.531 39.8314 100.566 39.7154C100.6 39.597 100.626 39.4908 100.644 39.3971C100.661 39.3008 100.669 39.212 100.669 39.1306C100.669 38.9455 100.623 38.7974 100.529 38.6864C100.437 38.5729 100.294 38.5161 100.099 38.5161C99.9439 38.5161 99.7946 38.5544 99.6515 38.6309C99.5108 38.7074 99.3689 38.8209 99.2258 38.9714C99.0827 39.1219 98.9359 39.3107 98.7853 39.5377C98.6373 39.7623 98.4793 40.0239 98.3115 40.3225L98.1191 40.663L97.3417 42.7877H96.7939L98.393 38.4014ZM106.377 38.4014H106.925L105.981 40.9924C105.947 41.0887 105.912 41.1874 105.877 41.2886C105.843 41.3873 105.812 41.486 105.785 41.5847C105.76 41.6809 105.739 41.7747 105.722 41.866C105.707 41.9548 105.7 42.0375 105.7 42.114C105.7 42.2843 105.744 42.42 105.833 42.5212C105.924 42.6224 106.065 42.6729 106.255 42.6729C106.42 42.6729 106.58 42.6372 106.733 42.5656C106.888 42.494 107.041 42.3867 107.192 42.2436C107.345 42.098 107.498 41.9166 107.651 41.6994C107.804 41.4798 107.963 41.2244 108.128 40.9332L108.321 40.5927L108.42 40.663L108.228 41.0035C108.048 41.3219 107.875 41.5983 107.71 41.8327C107.547 42.0647 107.383 42.2571 107.217 42.4101C107.055 42.5607 106.888 42.6729 106.718 42.747C106.547 42.821 106.366 42.858 106.174 42.858C106.023 42.858 105.89 42.8346 105.774 42.7877C105.66 42.7433 105.565 42.6791 105.489 42.5952C105.41 42.5113 105.351 42.4101 105.311 42.2917C105.272 42.1732 105.252 42.0412 105.252 41.8956C105.252 41.7673 105.268 41.6266 105.3 41.4736C105.33 41.3206 105.374 41.1602 105.433 40.9924L106.377 38.4014ZM106.673 37.4316C106.673 37.3452 106.703 37.2712 106.762 37.2095C106.824 37.1478 106.898 37.1169 106.984 37.1169C107.071 37.1169 107.143 37.1478 107.203 37.2095C107.264 37.2687 107.295 37.3415 107.295 37.4279C107.295 37.4698 107.287 37.5105 107.269 37.55C107.254 37.587 107.232 37.6191 107.203 37.6462C107.176 37.6734 107.142 37.6956 107.103 37.7129C107.066 37.7277 107.025 37.7351 106.981 37.7351C106.894 37.7351 106.821 37.7067 106.762 37.6499C106.703 37.5907 106.673 37.5179 106.673 37.4316ZM109.831 36.4506H110.382L108.728 40.9924C108.693 41.0887 108.659 41.1874 108.624 41.2886C108.589 41.3873 108.559 41.486 108.532 41.5847C108.507 41.6809 108.486 41.7747 108.469 41.866C108.454 41.9548 108.446 42.0375 108.446 42.114C108.446 42.2843 108.491 42.42 108.58 42.5212C108.671 42.6224 108.812 42.6729 109.002 42.6729C109.167 42.6729 109.326 42.6372 109.479 42.5656C109.635 42.494 109.788 42.3867 109.938 42.2436C110.091 42.098 110.244 41.9166 110.397 41.6994C110.55 41.4798 110.709 41.2244 110.875 40.9332L111.067 40.5927L111.167 40.663L110.975 41.0035C110.794 41.3219 110.622 41.5983 110.456 41.8327C110.293 42.0647 110.129 42.2571 109.964 42.4101C109.801 42.5607 109.635 42.6729 109.464 42.747C109.294 42.821 109.113 42.858 108.92 42.858C108.77 42.858 108.636 42.8346 108.52 42.7877C108.407 42.7433 108.312 42.6791 108.235 42.5952C108.156 42.5113 108.097 42.4101 108.058 42.2917C108.018 42.1732 107.998 42.0412 107.998 41.8956C107.998 41.7673 108.013 41.6279 108.043 41.4773C108.073 41.3243 108.118 41.1627 108.18 40.9924L109.831 36.4506ZM112.329 42.858C111.883 42.858 111.538 42.742 111.297 42.5101C111.055 42.2756 110.934 41.9277 110.934 41.4662C110.934 41.3404 110.944 41.2071 110.963 41.0665C110.981 40.9258 111.009 40.7815 111.049 40.6334C111.137 40.3027 111.262 39.9967 111.422 39.7154C111.585 39.4341 111.772 39.191 111.981 38.9862C112.191 38.7814 112.417 38.621 112.659 38.505C112.901 38.389 113.144 38.331 113.388 38.331C113.635 38.331 113.828 38.389 113.969 38.505C114.112 38.621 114.184 38.7839 114.184 38.9936C114.184 39.1121 114.16 39.228 114.113 39.3416C114.067 39.4551 113.999 39.5624 113.91 39.6636C113.821 39.7648 113.714 39.8598 113.588 39.9486C113.464 40.035 113.325 40.1102 113.17 40.1744C112.977 40.2558 112.765 40.3175 112.533 40.3595C112.301 40.399 112.037 40.4187 111.741 40.4187C111.669 40.6186 111.612 40.8271 111.57 41.0443C111.531 41.259 111.511 41.4786 111.511 41.7031C111.511 42.0461 111.583 42.2941 111.726 42.4471C111.872 42.5977 112.1 42.6729 112.411 42.6729C112.67 42.6729 112.917 42.6236 113.151 42.5249C113.385 42.4237 113.603 42.2917 113.803 42.1288C114.002 41.9659 114.185 41.7809 114.35 41.5736C114.516 41.3638 114.66 41.1504 114.783 40.9332L114.976 40.5927L115.076 40.663L114.883 41.0035C114.73 41.2725 114.563 41.5205 114.38 41.7476C114.2 41.9746 114.002 42.1708 113.788 42.3361C113.575 42.499 113.347 42.6273 113.103 42.7211C112.861 42.8124 112.603 42.858 112.329 42.858ZM113.492 38.4791C113.336 38.4791 113.177 38.5247 113.014 38.616C112.854 38.7074 112.698 38.8344 112.548 38.9973C112.397 39.1577 112.256 39.3477 112.126 39.5673C111.995 39.787 111.881 40.0263 111.785 40.2854C112.057 40.2805 112.289 40.2571 112.481 40.2151C112.674 40.1707 112.841 40.1152 112.984 40.0485C113.098 39.9967 113.208 39.9301 113.314 39.8487C113.422 39.7648 113.517 39.6698 113.599 39.5636C113.683 39.4575 113.749 39.3428 113.799 39.2194C113.851 39.096 113.877 38.9677 113.877 38.8344C113.877 38.7678 113.867 38.7123 113.847 38.6679C113.827 38.6235 113.8 38.5877 113.765 38.5605C113.731 38.5309 113.69 38.5099 113.643 38.4976C113.596 38.4853 113.546 38.4791 113.492 38.4791ZM114.487 41.7846C114.487 41.6587 114.501 41.5341 114.528 41.4107C114.555 41.2849 114.592 41.1676 114.639 41.0591C114.686 40.9505 114.74 40.8542 114.802 40.7703C114.864 40.684 114.929 40.6161 114.998 40.5668L116.56 38.294C116.587 38.0941 116.634 37.9337 116.701 37.8128C116.767 37.6919 116.848 37.6314 116.941 37.6314C117.015 37.6314 117.077 37.6512 117.126 37.6907C117.176 37.7301 117.201 37.7783 117.201 37.835C117.201 37.877 117.191 37.914 117.171 37.9461C117.151 37.9781 117.117 38.0152 117.067 38.0571C117.011 38.104 116.962 38.1484 116.923 38.1904C116.886 38.2323 116.855 38.2743 116.83 38.3162C116.806 38.3582 116.788 38.4026 116.779 38.4495C116.769 38.4964 116.764 38.547 116.764 38.6012C116.764 38.6555 116.767 38.7123 116.775 38.7715C116.785 38.8307 116.801 38.906 116.823 38.9973C116.845 39.0886 116.876 39.2021 116.916 39.3378C116.957 39.4736 117.011 39.6451 117.075 39.8524C117.139 40.0596 117.186 40.2571 117.215 40.4446C117.247 40.6322 117.263 40.8148 117.263 40.9924C117.263 41.6711 117.018 42.1856 116.527 42.536C116.381 42.6396 116.223 42.7198 116.053 42.7766C115.885 42.8309 115.715 42.858 115.542 42.858C115.379 42.858 115.233 42.8333 115.102 42.784C114.971 42.7322 114.861 42.6606 114.772 42.5693C114.681 42.4755 114.611 42.3632 114.561 42.2325C114.512 42.0992 114.487 41.9499 114.487 41.7846ZM116.538 38.5605L115.216 40.489C115.295 40.489 115.358 40.5149 115.405 40.5668C115.452 40.6186 115.476 40.6877 115.476 40.774C115.476 40.8185 115.469 40.8617 115.457 40.9036C115.445 40.9431 115.427 40.9776 115.405 41.0072C115.383 41.0369 115.357 41.0615 115.328 41.0813C115.298 41.0986 115.267 41.1072 115.235 41.1072C115.193 41.1072 115.157 41.0986 115.128 41.0813C115.098 41.064 115.061 41.0554 115.017 41.0554C114.965 41.0554 114.917 41.0739 114.872 41.1109C114.825 41.1454 114.786 41.1948 114.754 41.259C114.719 41.3231 114.693 41.3996 114.676 41.4884C114.656 41.5748 114.646 41.6698 114.646 41.7735C114.646 41.9117 114.666 42.0363 114.706 42.1473C114.743 42.2584 114.798 42.3534 114.872 42.4323C114.944 42.5088 115.03 42.5681 115.131 42.61C115.235 42.652 115.352 42.6729 115.483 42.6729C115.656 42.6729 115.816 42.6359 115.964 42.5619C116.112 42.4879 116.242 42.3805 116.353 42.2399C116.619 41.8993 116.753 41.386 116.753 40.7C116.753 40.6161 116.75 40.5334 116.745 40.452C116.743 40.3681 116.737 40.2817 116.727 40.1929C116.719 40.1016 116.708 40.0041 116.693 39.9005C116.679 39.7968 116.661 39.6796 116.642 39.5488C116.607 39.3292 116.581 39.1454 116.564 38.9973C116.547 38.8492 116.538 38.7296 116.538 38.6383V38.5605ZM124.304 39.2897C124.22 39.2897 124.153 39.2663 124.104 39.2194C124.057 39.17 124.034 39.1034 124.034 39.0195C124.034 38.9405 124.055 38.8764 124.097 38.827C124.138 38.7777 124.194 38.753 124.263 38.753C124.288 38.753 124.311 38.7579 124.333 38.7678C124.346 38.7727 124.354 38.7764 124.359 38.7789C124.364 38.7789 124.369 38.7789 124.374 38.7789C124.396 38.7789 124.407 38.7629 124.407 38.7308C124.407 38.6987 124.395 38.6679 124.37 38.6383C124.346 38.6062 124.312 38.579 124.27 38.5568C124.229 38.5321 124.179 38.5136 124.122 38.5013C124.068 38.4865 124.011 38.4791 123.952 38.4791C123.799 38.4791 123.644 38.5235 123.486 38.6123C123.33 38.7012 123.179 38.8233 123.03 38.9788C122.885 39.1318 122.747 39.3119 122.616 39.5192C122.488 39.7265 122.375 39.9486 122.279 40.1855C122.183 40.4199 122.106 40.663 122.05 40.9147C121.995 41.1664 121.968 41.4132 121.968 41.655C121.968 41.8376 121.984 41.9931 122.016 42.1214C122.051 42.2497 122.103 42.3546 122.172 42.436C122.243 42.5175 122.335 42.5779 122.446 42.6174C122.557 42.6544 122.69 42.6729 122.845 42.6729C123.075 42.6729 123.298 42.6347 123.515 42.5582C123.735 42.4817 123.946 42.3706 124.148 42.2251C124.353 42.077 124.547 41.8956 124.729 41.6809C124.915 41.4638 125.086 41.2145 125.244 40.9332L125.436 40.5927L125.536 40.663L125.344 41.0035C124.991 41.6303 124.601 42.0967 124.174 42.4027C123.747 42.7063 123.281 42.858 122.775 42.858C122.316 42.858 121.971 42.7396 121.739 42.5027C121.509 42.2658 121.394 41.9215 121.394 41.4699C121.394 41.3367 121.404 41.1997 121.424 41.0591C121.444 40.9184 121.472 40.7765 121.509 40.6334C121.598 40.3027 121.723 39.9967 121.883 39.7154C122.046 39.4341 122.231 39.191 122.438 38.9862C122.648 38.7814 122.874 38.621 123.116 38.505C123.36 38.389 123.608 38.331 123.86 38.331C124.124 38.331 124.325 38.4001 124.463 38.5383C124.52 38.5951 124.563 38.658 124.593 38.7271C124.622 38.7937 124.637 38.8628 124.637 38.9344C124.637 39.043 124.606 39.1293 124.544 39.1935C124.485 39.2576 124.405 39.2897 124.304 39.2897ZM125.411 40.6371C125.497 40.3064 125.623 40.0004 125.788 39.7191C125.956 39.4378 126.147 39.1947 126.362 38.9899C126.579 38.7826 126.813 38.621 127.065 38.505C127.319 38.389 127.575 38.331 127.831 38.331C128.039 38.331 128.213 38.3668 128.353 38.4384C128.496 38.5075 128.611 38.6012 128.698 38.7197C128.784 38.8381 128.846 38.9751 128.883 39.1306C128.92 39.286 128.938 39.4489 128.938 39.6192C128.938 39.8042 128.92 39.9893 128.883 40.1744C128.848 40.3595 128.802 40.5359 128.746 40.7037C128.711 40.8098 128.672 40.9122 128.627 41.0109C128.583 41.1097 128.536 41.2059 128.487 41.2997C128.521 41.3811 128.572 41.4477 128.638 41.4996C128.705 41.5489 128.797 41.5736 128.916 41.5736C128.985 41.5736 129.059 41.5625 129.138 41.5403C129.217 41.5181 129.296 41.4823 129.375 41.4329C129.456 41.3811 129.535 41.3145 129.612 41.233C129.691 41.1516 129.764 41.0517 129.83 40.9332L130.023 40.5927L130.123 40.663L129.93 41.0035C129.836 41.1689 129.74 41.2997 129.641 41.3959C129.545 41.4897 129.451 41.5612 129.36 41.6106C129.269 41.66 129.182 41.692 129.101 41.7068C129.022 41.7192 128.954 41.7253 128.897 41.7253C128.781 41.7253 128.678 41.7105 128.586 41.6809C128.495 41.6488 128.414 41.6069 128.342 41.5551C128.219 41.7525 128.082 41.9314 127.931 42.0918C127.783 42.2522 127.627 42.3892 127.461 42.5027C127.296 42.6162 127.124 42.7038 126.947 42.7655C126.771 42.8272 126.596 42.858 126.421 42.858C126.246 42.858 126.088 42.8272 125.947 42.7655C125.809 42.7013 125.692 42.61 125.596 42.4916C125.499 42.3731 125.425 42.2288 125.374 42.0585C125.322 41.8857 125.296 41.692 125.296 41.4773C125.296 41.3416 125.306 41.2034 125.325 41.0628C125.345 40.9196 125.374 40.7777 125.411 40.6371ZM126.477 42.6729C126.62 42.6729 126.764 42.6409 126.91 42.5767C127.058 42.5101 127.202 42.4163 127.343 42.2954C127.486 42.1745 127.623 42.0289 127.754 41.8586C127.887 41.6859 128.009 41.4946 128.12 41.2849C128.09 41.2281 128.068 41.1701 128.053 41.1109C128.041 41.0492 128.035 40.9863 128.035 40.9221C128.035 40.8505 128.045 40.7802 128.065 40.7111C128.084 40.6396 128.114 40.5742 128.153 40.5149C128.195 40.4532 128.247 40.3977 128.309 40.3484C128.373 40.299 128.447 40.2595 128.531 40.2299C128.568 40.0917 128.599 39.9486 128.623 39.8005C128.648 39.65 128.661 39.502 128.661 39.3564C128.661 39.2379 128.649 39.1256 128.627 39.0195C128.605 38.9109 128.567 38.8172 128.512 38.7382C128.461 38.6592 128.389 38.5963 128.298 38.5494C128.209 38.5025 128.098 38.4791 127.965 38.4791C127.772 38.4791 127.581 38.5309 127.391 38.6346C127.203 38.7357 127.024 38.8801 126.854 39.0676C126.686 39.2527 126.533 39.4748 126.395 39.7339C126.257 39.993 126.142 40.2793 126.051 40.5927C125.989 40.8024 125.941 41.0134 125.907 41.2256C125.874 41.4354 125.858 41.6266 125.858 41.7994C125.858 42.3818 126.064 42.6729 126.477 42.6729ZM130.819 38.4014H131.366L130.785 39.9893C130.951 39.708 131.106 39.4637 131.252 39.2564C131.4 39.0491 131.545 38.8776 131.688 38.7419C131.834 38.6037 131.982 38.5013 132.133 38.4347C132.286 38.3656 132.448 38.331 132.621 38.331C132.772 38.331 132.904 38.3557 133.017 38.4051C133.133 38.4544 133.229 38.5235 133.306 38.6123C133.385 38.7012 133.444 38.8085 133.484 38.9344C133.523 39.0602 133.543 39.1984 133.543 39.349C133.543 39.4427 133.534 39.5451 133.517 39.6562C133.5 39.7648 133.468 39.898 133.421 40.0559C133.586 39.7697 133.743 39.5192 133.891 39.3045C134.039 39.0898 134.186 38.9109 134.331 38.7678C134.479 38.6222 134.63 38.5136 134.783 38.4421C134.938 38.368 135.104 38.331 135.279 38.331C135.432 38.331 135.566 38.3569 135.682 38.4088C135.801 38.4606 135.898 38.5297 135.975 38.616C136.054 38.7024 136.113 38.8048 136.152 38.9233C136.192 39.0393 136.212 39.1614 136.212 39.2897C136.212 39.4279 136.191 39.5797 136.149 39.745C136.109 39.9104 136.059 40.0806 135.997 40.2558C135.935 40.431 135.869 40.6087 135.797 40.7889C135.726 40.9665 135.659 41.138 135.597 41.3034C135.536 41.4687 135.484 41.6242 135.442 41.7698C135.402 41.9129 135.383 42.0387 135.383 42.1473C135.383 42.2979 135.428 42.4237 135.519 42.5249C135.613 42.6236 135.759 42.6729 135.956 42.6729C136.275 42.6729 136.582 42.5286 136.878 42.2399C137.177 41.9511 137.487 41.5156 137.811 40.9332L138 40.5927L138.099 40.663L137.907 41.0035C137.732 41.3145 137.563 41.5872 137.4 41.8216C137.237 42.0535 137.074 42.246 136.911 42.399C136.748 42.552 136.582 42.6668 136.412 42.7433C136.241 42.8198 136.061 42.858 135.871 42.858C135.716 42.858 135.58 42.8346 135.464 42.7877C135.348 42.7408 135.25 42.6766 135.172 42.5952C135.093 42.5138 135.033 42.42 134.994 42.3139C134.954 42.2053 134.935 42.0906 134.935 41.9696C134.935 41.8413 134.954 41.697 134.994 41.5366C135.036 41.3762 135.088 41.2096 135.149 41.0369C135.211 40.8641 135.278 40.6889 135.349 40.5112C135.421 40.3311 135.487 40.1571 135.549 39.9893C135.611 39.819 135.661 39.6586 135.701 39.5081C135.743 39.3551 135.764 39.2194 135.764 39.1009C135.764 39.0195 135.753 38.943 135.73 38.8715C135.708 38.7999 135.674 38.7382 135.627 38.6864C135.58 38.6321 135.521 38.5901 135.449 38.5605C135.378 38.5309 135.292 38.5161 135.194 38.5161C135.038 38.5161 134.889 38.5556 134.746 38.6346C134.603 38.7111 134.46 38.8258 134.316 38.9788C134.173 39.1318 134.027 39.3206 133.876 39.5451C133.728 39.7697 133.571 40.0288 133.406 40.3225L133.221 40.6519L132.443 42.7877H131.896L132.691 40.5927C132.756 40.4125 132.812 40.2509 132.862 40.1078C132.914 39.9622 132.957 39.8314 132.991 39.7154C133.026 39.597 133.052 39.4908 133.069 39.3971C133.086 39.3008 133.095 39.212 133.095 39.1306C133.095 38.9455 133.048 38.7974 132.954 38.6864C132.863 38.5729 132.72 38.5161 132.525 38.5161C132.369 38.5161 132.22 38.5544 132.077 38.6309C131.936 38.7074 131.794 38.8209 131.651 38.9714C131.508 39.1219 131.361 39.3107 131.211 39.5377C131.063 39.7623 130.905 40.0239 130.737 40.3225L130.545 40.663L129.767 42.7877H129.219L130.819 38.4014ZM139.269 42.858C138.822 42.858 138.478 42.742 138.236 42.5101C137.995 42.2756 137.874 41.9277 137.874 41.4662C137.874 41.3404 137.884 41.2071 137.903 41.0665C137.921 40.9258 137.949 40.7815 137.988 40.6334C138.077 40.3027 138.202 39.9967 138.362 39.7154C138.525 39.4341 138.711 39.191 138.921 38.9862C139.131 38.7814 139.357 38.621 139.599 38.505C139.84 38.389 140.083 38.331 140.328 38.331C140.575 38.331 140.768 38.389 140.909 38.505C141.052 38.621 141.124 38.7839 141.124 38.9936C141.124 39.1121 141.1 39.228 141.053 39.3416C141.006 39.4551 140.939 39.5624 140.85 39.6636C140.761 39.7648 140.654 39.8598 140.528 39.9486C140.404 40.035 140.265 40.1102 140.109 40.1744C139.917 40.2558 139.705 40.3175 139.473 40.3595C139.241 40.399 138.977 40.4187 138.681 40.4187C138.609 40.6186 138.552 40.8271 138.51 41.0443C138.471 41.259 138.451 41.4786 138.451 41.7031C138.451 42.0461 138.523 42.2941 138.666 42.4471C138.811 42.5977 139.04 42.6729 139.351 42.6729C139.61 42.6729 139.856 42.6236 140.091 42.5249C140.325 42.4237 140.542 42.2917 140.742 42.1288C140.942 41.9659 141.125 41.7809 141.29 41.5736C141.456 41.3638 141.6 41.1504 141.723 40.9332L141.916 40.5927L142.016 40.663L141.823 41.0035C141.67 41.2725 141.502 41.5205 141.32 41.7476C141.14 41.9746 140.942 42.1708 140.728 42.3361C140.515 42.499 140.287 42.6273 140.043 42.7211C139.801 42.8124 139.543 42.858 139.269 42.858ZM140.431 38.4791C140.276 38.4791 140.117 38.5247 139.954 38.616C139.794 38.7074 139.638 38.8344 139.488 38.9973C139.337 39.1577 139.196 39.3477 139.066 39.5673C138.935 39.787 138.821 40.0263 138.725 40.2854C138.996 40.2805 139.228 40.2571 139.421 40.2151C139.613 40.1707 139.781 40.1152 139.924 40.0485C140.038 39.9967 140.148 39.9301 140.254 39.8487C140.362 39.7648 140.457 39.6698 140.539 39.5636C140.623 39.4575 140.689 39.3428 140.739 39.2194C140.79 39.096 140.816 38.9677 140.816 38.8344C140.816 38.7678 140.807 38.7123 140.787 38.6679C140.767 38.6235 140.74 38.5877 140.705 38.5605C140.671 38.5309 140.63 38.5099 140.583 38.4976C140.536 38.4853 140.486 38.4791 140.431 38.4791ZM144.651 40.626C144.74 40.3595 144.846 40.1176 144.97 39.9005C145.093 39.6809 145.226 39.4859 145.369 39.3156C145.515 39.1454 145.667 38.9985 145.825 38.8752C145.985 38.7518 146.144 38.6506 146.302 38.5716C146.462 38.4902 146.619 38.4297 146.772 38.3903C146.928 38.3508 147.073 38.331 147.209 38.331C147.35 38.331 147.467 38.3532 147.561 38.3977C147.654 38.4396 147.73 38.5001 147.786 38.579C147.846 38.6555 147.888 38.7493 147.912 38.8603C147.937 38.9689 147.949 39.0898 147.949 39.2231L148.249 38.4014H148.797L147.853 40.9924C147.818 41.0887 147.784 41.1874 147.749 41.2886C147.715 41.3873 147.684 41.486 147.657 41.5847C147.632 41.6809 147.611 41.7747 147.594 41.866C147.579 41.9548 147.572 42.0375 147.572 42.114C147.572 42.2843 147.616 42.42 147.705 42.5212C147.796 42.6224 147.937 42.6729 148.127 42.6729C148.292 42.6729 148.453 42.6384 148.608 42.5693C148.764 42.4977 148.917 42.3904 149.067 42.2473C149.22 42.1017 149.373 41.9203 149.526 41.7031C149.679 41.4835 149.837 41.2269 150 40.9332L150.189 40.5927L150.289 40.663L150.096 41.0035C149.916 41.3243 149.743 41.602 149.578 41.8364C149.415 42.0684 149.252 42.2608 149.089 42.4138C148.926 42.5644 148.76 42.6766 148.59 42.7507C148.419 42.8222 148.238 42.858 148.046 42.858C147.895 42.858 147.762 42.8346 147.646 42.7877C147.532 42.7433 147.436 42.6791 147.357 42.5952C147.281 42.5113 147.223 42.4101 147.183 42.2917C147.144 42.1732 147.124 42.0412 147.124 41.8956C147.124 41.7994 147.132 41.6957 147.15 41.5847C147.167 41.4712 147.193 41.354 147.227 41.233C146.904 41.7759 146.585 42.1831 146.269 42.4546C145.953 42.7235 145.632 42.858 145.306 42.858C145.153 42.858 145.023 42.8309 144.914 42.7766C144.808 42.7198 144.72 42.6421 144.651 42.5434C144.582 42.4422 144.532 42.325 144.499 42.1917C144.467 42.056 144.451 41.908 144.451 41.7476C144.451 41.5748 144.469 41.3934 144.503 41.2034C144.538 41.0109 144.587 40.8185 144.651 40.626ZM145.44 42.6729C145.573 42.6729 145.709 42.6384 145.847 42.5693C145.985 42.4977 146.122 42.4015 146.258 42.2806C146.396 42.1572 146.529 42.0141 146.657 41.8512C146.786 41.6859 146.907 41.5107 147.02 41.3256C147.136 41.138 147.242 40.9456 147.339 40.7481C147.435 40.5507 147.517 40.357 147.587 40.167C147.658 39.9745 147.712 39.7919 147.749 39.6192C147.789 39.444 147.809 39.2873 147.809 39.1491C147.809 39.0232 147.793 38.9183 147.76 38.8344C147.731 38.7481 147.69 38.679 147.638 38.6272C147.589 38.5729 147.531 38.5346 147.464 38.5124C147.4 38.4902 147.334 38.4791 147.264 38.4791C147.126 38.4791 146.972 38.5223 146.802 38.6086C146.634 38.6925 146.462 38.8221 146.287 38.9973C146.112 39.17 145.939 39.3897 145.769 39.6562C145.601 39.9202 145.447 40.2312 145.306 40.589C145.19 40.8876 145.103 41.1639 145.044 41.4181C144.987 41.6723 144.958 41.8845 144.958 42.0548C144.958 42.2473 144.997 42.399 145.073 42.5101C145.152 42.6187 145.274 42.6729 145.44 42.6729ZM151.695 36.4506H152.247L150.592 40.9924C150.558 41.0887 150.523 41.1874 150.489 41.2886C150.454 41.3873 150.423 41.486 150.396 41.5847C150.371 41.6809 150.35 41.7747 150.333 41.866C150.318 41.9548 150.311 42.0375 150.311 42.114C150.311 42.2843 150.355 42.42 150.444 42.5212C150.535 42.6224 150.676 42.6729 150.866 42.6729C151.031 42.6729 151.191 42.6372 151.344 42.5656C151.499 42.494 151.652 42.3867 151.803 42.2436C151.956 42.098 152.109 41.9166 152.262 41.6994C152.415 41.4798 152.574 41.2244 152.739 40.9332L152.932 40.5927L153.031 40.663L152.839 41.0035C152.659 41.3219 152.486 41.5983 152.321 41.8327C152.158 42.0647 151.994 42.2571 151.828 42.4101C151.666 42.5607 151.499 42.6729 151.329 42.747C151.159 42.821 150.977 42.858 150.785 42.858C150.634 42.858 150.501 42.8346 150.385 42.7877C150.271 42.7433 150.176 42.6791 150.1 42.5952C150.021 42.5113 149.962 42.4101 149.922 42.2917C149.883 42.1732 149.863 42.0412 149.863 41.8956C149.863 41.7673 149.878 41.6279 149.907 41.4773C149.937 41.3243 149.983 41.1627 150.044 40.9924L151.695 36.4506ZM153.727 38.4014H154.275L153.331 40.9924C153.297 41.0887 153.262 41.1874 153.228 41.2886C153.193 41.3873 153.162 41.486 153.135 41.5847C153.11 41.6809 153.089 41.7747 153.072 41.866C153.057 41.9548 153.05 42.0375 153.05 42.114C153.05 42.2843 153.094 42.42 153.183 42.5212C153.275 42.6224 153.415 42.6729 153.605 42.6729C153.771 42.6729 153.93 42.6372 154.083 42.5656C154.238 42.494 154.391 42.3867 154.542 42.2436C154.695 42.098 154.848 41.9166 155.001 41.6994C155.154 41.4798 155.313 41.2244 155.478 40.9332L155.671 40.5927L155.771 40.663L155.578 41.0035C155.398 41.3219 155.225 41.5983 155.06 41.8327C154.897 42.0647 154.733 42.2571 154.568 42.4101C154.405 42.5607 154.238 42.6729 154.068 42.747C153.898 42.821 153.716 42.858 153.524 42.858C153.373 42.858 153.24 42.8346 153.124 42.7877C153.011 42.7433 152.916 42.6791 152.839 42.5952C152.76 42.5113 152.701 42.4101 152.661 42.2917C152.622 42.1732 152.602 42.0412 152.602 41.8956C152.602 41.7673 152.618 41.6266 152.65 41.4736C152.68 41.3206 152.724 41.1602 152.783 40.9924L153.727 38.4014ZM154.023 37.4316C154.023 37.3452 154.053 37.2712 154.112 37.2095C154.174 37.1478 154.248 37.1169 154.334 37.1169C154.421 37.1169 154.494 37.1478 154.553 37.2095C154.615 37.2687 154.645 37.3415 154.645 37.4279C154.645 37.4698 154.637 37.5105 154.619 37.55C154.605 37.587 154.582 37.6191 154.553 37.6462C154.526 37.6734 154.492 37.6956 154.453 37.7129C154.416 37.7277 154.375 37.7351 154.331 37.7351C154.244 37.7351 154.172 37.7067 154.112 37.6499C154.053 37.5907 154.023 37.5179 154.023 37.4316ZM156.074 40.9924C155.978 41.259 155.906 41.4823 155.859 41.6624C155.815 41.8426 155.793 41.9931 155.793 42.114C155.793 42.2917 155.84 42.4299 155.934 42.5286C156.027 42.6248 156.164 42.6729 156.344 42.6729C156.512 42.6729 156.684 42.6298 156.859 42.5434C157.034 42.4546 157.204 42.3324 157.37 42.1769C157.535 42.0215 157.689 41.8389 157.832 41.6291C157.976 41.4169 158.1 41.1886 158.206 40.9443C158.305 40.7148 158.38 40.4792 158.432 40.2373C158.486 39.993 158.513 39.7413 158.513 39.4822C158.513 39.2947 158.501 39.1454 158.476 39.0343C158.454 38.9208 158.428 38.8307 158.399 38.7641C158.369 38.6975 158.342 38.6469 158.317 38.6123C158.295 38.5753 158.284 38.5395 158.284 38.505C158.284 38.4606 158.302 38.4211 158.34 38.3866C158.379 38.352 158.423 38.3347 158.473 38.3347C158.527 38.3347 158.573 38.3569 158.61 38.4014C158.649 38.4458 158.681 38.5062 158.706 38.5827C158.731 38.6592 158.749 38.7493 158.761 38.8529C158.774 38.9566 158.78 39.0664 158.78 39.1824C158.78 39.3502 158.768 39.5168 158.743 39.6821C158.721 39.8474 158.69 40.0078 158.65 40.1633C158.613 40.3188 158.569 40.4681 158.517 40.6112C158.465 40.7543 158.411 40.8888 158.354 41.0146C158.231 41.2836 158.089 41.5316 157.929 41.7587C157.768 41.9832 157.595 42.1769 157.41 42.3398C157.228 42.5027 157.038 42.6298 156.84 42.7211C156.643 42.8124 156.444 42.858 156.244 42.858C156.104 42.858 155.978 42.8346 155.867 42.7877C155.756 42.7433 155.662 42.6791 155.586 42.5952C155.507 42.5113 155.447 42.4101 155.408 42.2917C155.366 42.1732 155.345 42.0412 155.345 41.8956C155.345 41.7698 155.361 41.6303 155.393 41.4773C155.423 41.3219 155.467 41.1602 155.526 40.9924L156.467 38.4014H157.014L156.074 40.9924ZM161.093 42.858C160.647 42.858 160.303 42.742 160.061 42.5101C159.819 42.2756 159.698 41.9277 159.698 41.4662C159.698 41.3404 159.708 41.2071 159.728 41.0665C159.745 40.9258 159.773 40.7815 159.813 40.6334C159.902 40.3027 160.026 39.9967 160.187 39.7154C160.349 39.4341 160.536 39.191 160.746 38.9862C160.955 38.7814 161.181 38.621 161.423 38.505C161.665 38.389 161.908 38.331 162.152 38.331C162.399 38.331 162.593 38.389 162.733 38.505C162.876 38.621 162.948 38.7839 162.948 38.9936C162.948 39.1121 162.924 39.228 162.878 39.3416C162.831 39.4551 162.763 39.5624 162.674 39.6636C162.585 39.7648 162.478 39.8598 162.352 39.9486C162.229 40.035 162.089 40.1102 161.934 40.1744C161.741 40.2558 161.529 40.3175 161.297 40.3595C161.065 40.399 160.801 40.4187 160.505 40.4187C160.433 40.6186 160.377 40.8271 160.335 41.0443C160.295 41.259 160.275 41.4786 160.275 41.7031C160.275 42.0461 160.347 42.2941 160.49 42.4471C160.636 42.5977 160.864 42.6729 161.175 42.6729C161.434 42.6729 161.681 42.6236 161.915 42.5249C162.15 42.4237 162.367 42.2917 162.567 42.1288C162.767 41.9659 162.949 41.7809 163.115 41.5736C163.28 41.3638 163.424 41.1504 163.548 40.9332L163.74 40.5927L163.84 40.663L163.648 41.0035C163.495 41.2725 163.327 41.5205 163.144 41.7476C162.964 41.9746 162.767 42.1708 162.552 42.3361C162.34 42.499 162.111 42.6273 161.867 42.7211C161.625 42.8124 161.367 42.858 161.093 42.858ZM162.256 38.4791C162.1 38.4791 161.941 38.5247 161.778 38.616C161.618 38.7074 161.462 38.8344 161.312 38.9973C161.161 39.1577 161.021 39.3477 160.89 39.5673C160.759 39.787 160.646 40.0263 160.549 40.2854C160.821 40.2805 161.053 40.2571 161.245 40.2151C161.438 40.1707 161.606 40.1152 161.749 40.0485C161.862 39.9967 161.972 39.9301 162.078 39.8487C162.187 39.7648 162.282 39.6698 162.363 39.5636C162.447 39.4575 162.514 39.3428 162.563 39.2194C162.615 39.096 162.641 38.9677 162.641 38.8344C162.641 38.7678 162.631 38.7123 162.611 38.6679C162.591 38.6235 162.564 38.5877 162.53 38.5605C162.495 38.5309 162.454 38.5099 162.408 38.4976C162.361 38.4853 162.31 38.4791 162.256 38.4791ZM166.616 36.6098L164.736 41.5403L164.392 41.4403L165.994 36.4543L166.616 36.6098ZM163.899 42.4842C163.899 42.3953 163.929 42.3201 163.988 42.2584C164.047 42.1967 164.12 42.1658 164.206 42.1658C164.248 42.1658 164.288 42.1745 164.325 42.1917C164.364 42.2065 164.398 42.2288 164.425 42.2584C164.454 42.2855 164.477 42.3188 164.491 42.3583C164.509 42.3953 164.517 42.436 164.517 42.4805C164.517 42.5224 164.509 42.5631 164.491 42.6026C164.477 42.6396 164.454 42.6717 164.425 42.6989C164.398 42.726 164.364 42.7482 164.325 42.7655C164.288 42.7803 164.247 42.7877 164.203 42.7877C164.116 42.7877 164.044 42.7593 163.984 42.7026C163.928 42.6433 163.899 42.5705 163.899 42.4842Z" fill="#333333"></path><defs><linearGradient id="paint0_linear_124_117" x1="-29.364" y1="26.8913" x2="86.5047" y2="26.3803" gradientUnits="userSpaceOnUse"><stop stop-color="#FFF8A5"></stop><stop offset="0.0319516" stop-color="#FDE67E"></stop><stop offset="0.0440085" stop-color="#F0D36F"></stop><stop offset="0.0827324" stop-color="#CB9A42"></stop><stop offset="0.1115" stop-color="#B47727"></stop><stop offset="0.1269" stop-color="#AB6A1C"></stop><stop offset="0.1622" stop-color="#B67A29"></stop><stop offset="0.2313" stop-color="#D2A44A"></stop><stop offset="0.3238" stop-color="#FDE67E"></stop><stop offset="0.3919" stop-color="#FEF298"></stop><stop offset="0.4404" stop-color="#FFF8A5"></stop><stop offset="0.6883" stop-color="#FDE67E"></stop><stop offset="0.6991" stop-color="#F5DA75"></stop><stop offset="0.7472" stop-color="#D5AA4F"></stop><stop offset="0.7896" stop-color="#BE8834"></stop><stop offset="0.8244" stop-color="#B07323"></stop><stop offset="0.8471" stop-color="#AB6B1D"></stop><stop offset="0.8688" stop-color="#AD6F20"></stop><stop offset="0.8888" stop-color="#B57A29"></stop><stop offset="0.9083" stop-color="#C28D38"></stop><stop offset="0.9274" stop-color="#D3A74C"></stop><stop offset="0.9461" stop-color="#EAC967"></stop><stop offset="0.9594" stop-color="#FDE67E"></stop><stop offset="0.9811" stop-color="#FEF093"></stop><stop offset="1" stop-color="#FFF7A0"></stop></linearGradient><linearGradient id="paint1_linear_124_117" x1="26.241" y1="-13.324" x2="27.5466" y2="69.12" gradientUnits="userSpaceOnUse"><stop stop-color="#660167"></stop><stop offset="1" stop-color="#93278F"></stop></linearGradient></defs></svg>